<?xml version="1.0" standalone="no"?>
<!DOCTYPE svg PUBLIC "-//W3C//DTD SVG 20010904//EN"
 "http://www.w3.org/TR/2001/REC-SVG-20010904/DTD/svg10.dtd">
<svg version="1.0" xmlns="http://www.w3.org/2000/svg"
 width="512.000000pt" height="512.000000pt" viewBox="0 0 512.000000 512.000000"
 preserveAspectRatio="xMidYMid meet">

<g transform="translate(0.000000,512.000000) scale(0.100000,-0.100000)"
fill="#000000" stroke="none">
<path d="M2428 5110 c-140 -25 -290 -94 -396 -182 -125 -102 -229 -268 -273
-433 -19 -68 -22 -110 -23 -275 -1 -187 0 -197 23 -240 56 -108 126 -152 253
-158 l87 -4 25 -38 c13 -20 50 -61 80 -91 l56 -54 0 -95 0 -96 -131 -21 c-72
-12 -132 -23 -134 -25 -4 -4 14 -140 19 -146 3 -2 61 5 129 17 69 12 135 21
147 21 12 0 40 -16 62 -35 112 -95 310 -93 421 6 l45 39 209 0 209 0 122 139
c67 76 129 144 137 151 14 12 21 7 209 -161 4 -4 -116 -147 -268 -319 l-276
-311 0 -510 0 -509 -210 0 -210 0 0 -150 0 -150 -180 0 -180 0 0 150 0 150
-210 0 -210 0 0 460 0 460 -84 0 -83 0 -68 -185 c-55 -151 -71 -185 -84 -180
-9 3 -69 27 -134 52 -93 37 -116 50 -111 62 3 9 49 133 101 276 52 143 103
280 114 304 42 95 130 169 223 186 36 7 38 9 32 39 -3 17 -10 49 -14 71 -8 40
-8 40 -50 38 -98 -4 -255 -118 -311 -224 -13 -25 -151 -392 -305 -815 l-281
-769 -303 -3 -302 -2 0 -150 0 -150 -150 0 -150 0 0 -625 0 -625 475 0 475 0
0 40 0 40 75 0 75 0 0 -40 0 -40 2010 0 2010 0 0 625 0 625 -150 0 -150 0 0
150 0 150 -215 0 -215 0 0 -75 0 -75 140 0 141 0 -3 -72 -3 -73 -772 -3 -773
-2 0 75 0 75 559 0 c346 0 562 4 566 10 3 5 3 39 -1 75 l-7 65 -458 0 -459 0
0 598 0 598 705 794 c418 471 714 813 727 840 15 30 24 69 26 118 4 66 1 79
-27 137 -36 72 -72 107 -150 143 -46 21 -64 24 -130 20 -126 -8 -141 -19 -395
-308 l-136 -155 49 -47 c27 -27 54 -48 59 -48 5 0 86 87 180 194 104 118 183
198 202 206 52 21 117 8 158 -33 30 -30 36 -44 39 -89 3 -40 0 -60 -15 -83
-30 -46 -784 -890 -795 -890 -12 0 -205 167 -206 178 -1 5 76 96 170 203 94
107 170 196 168 197 -2 1 -28 24 -56 50 l-53 48 -333 -378 -333 -378 -157 -3
-157 -3 0 88 0 88 56 54 c30 30 67 71 80 91 l25 38 87 4 c127 6 197 50 253
158 23 43 24 53 23 240 -1 165 -4 207 -23 275 -76 288 -299 515 -583 595 -82
24 -272 35 -350 20z m327 -170 c110 -34 192 -85 281 -174 68 -68 89 -97 127
-176 54 -115 63 -144 39 -135 -9 4 -46 9 -82 12 l-65 6 -29 61 c-39 80 -141
183 -224 225 -158 80 -332 79 -486 -1 -82 -44 -185 -147 -222 -224 l-29 -61
-65 -6 c-36 -3 -73 -8 -82 -12 -24 -9 -15 20 38 133 90 188 258 320 469 368
84 19 241 12 330 -16z m-725 -742 c0 -68 3 -147 6 -175 l7 -53 -35 0 c-50 0
-100 37 -116 85 -18 53 -11 162 14 203 19 34 65 61 102 62 22 0 22 -2 22 -122z
m1134 107 c18 -9 40 -29 50 -47 25 -41 32 -150 14 -203 -16 -48 -66 -85 -116
-85 l-35 0 7 53 c3 28 6 107 6 175 0 117 1 122 21 122 12 0 35 -7 53 -15z
m-353 -180 c60 -77 108 -146 109 -154 1 -28 -64 -133 -107 -172 -25 -22 -70
-53 -101 -67 -49 -23 -70 -27 -152 -27 -82 0 -103 4 -152 27 -76 35 -138 95
-179 170 -34 63 -34 64 -37 216 l-4 152 258 -2 258 -3 107 -140z m-111 -646
c0 -83 -13 -106 -73 -128 -61 -23 -141 -9 -184 31 -20 19 -23 32 -23 97 l0 76
140 0 140 0 0 -76z m-1186 -1262 c43 -17 80 -36 82 -41 2 -6 -47 -148 -108
-316 l-113 -305 -152 -3 c-84 -1 -153 1 -153 5 0 5 59 171 132 370 l132 361
50 -20 c28 -11 86 -34 130 -51z m286 -312 l0 -355 -130 0 c-71 0 -130 3 -130
7 0 10 254 703 258 703 1 0 2 -160 2 -355z m200 -580 l0 -75 -772 2 -773 3 -3
73 -3 72 776 0 775 0 0 -75z m-560 -550 l0 -75 -80 0 -80 0 0 75 0 75 80 0 80
0 0 -75z m2400 0 l0 -75 -80 0 -80 0 0 75 0 75 80 0 80 0 0 -75z m-1610 -145
l0 -120 -170 0 -170 0 0 120 0 120 170 0 170 0 0 -120z m500 -5 l0 -125 -170
0 -170 0 0 125 0 125 170 0 170 0 0 -125z m510 0 l0 -125 -175 0 -175 0 0 125
0 125 175 0 175 0 0 -125z m-1800 -150 l0 -75 -80 0 -80 0 0 75 0 75 80 0 80
0 0 -75z m2400 0 l0 -75 -80 0 -80 0 0 75 0 75 80 0 80 0 0 -75z"/>
</g>
</svg>
